{
  "accessors": [
    {
      "bufferView": 0,
      "componentType": 5126,
      "count": 65535,
      "max": [
        6.776445388793945,
        7.109275817871094,
        54.83427429199219
      ],
      "min": [
        0.6700835227966309,
        -4.019766330718994,
        31.65079689025879
      ],
      "type": "VEC3"
    },
    {
      "bufferView": 1,
      "componentType": 5126,
      "count": 65535,
      "max": [
        0.9960784316062927,
        0.9921568632125854,
        0.9411764740943909,
        1.0
      ],
      "min": [
        0.0,
        0.0,
        0.0,
        1.0
      ],
      "type": "VEC4"
    },
    {
      "bufferView": 0,
      "byteOffset": 786420,
      "componentType": 5126,
      "count": 65535,
      "max": [
        11.69562816619873,
        7.352799892425537,
        54.85862350463867
      ],
      "min": [
        0.6700835227966309,
        -4.019766330718994,
        31.632532119750977
      ],
      "type": "VEC3"
    },
    {
      "bufferView": 1,
      "byteOffset": 1048560,
      "componentType": 5126,
      "count": 65535,
      "max": [
        0.9960784316062927,
        0.9921568632125854,
        0.9960784316062927,
        1.0
      ],
      "min": [
        0.0,
        0.0,
        0.0,
        1.0
      ],
      "type": "VEC4"
    },
    {
      "bufferView": 0,
      "byteOffset": 1572840,
      "componentType": 5126,
      "count": 65535,
      "max": [
        11.933064460754395,
        6.731813907623291,
        55.12041473388672
      ],
      "min": [
        -1.3146363496780396,
        -4.019766330718994,
        31.632532119750977
      ],
      "type": "VEC3"
    },
    {
      "bufferView": 1,
      "byteOffset": 2097120,
      "componentType": 5126,
      "count": 65535,
      "max": [
        0.9960784316062927,
        0.9803921580314636,
        0.9960784316062927,
        1.0
      ],
      "min": [
        0.0,
        0.0,
        0.0,
        1.0
      ],
      "type": "VEC4"
    },
    {
      "bufferView": 0,
      "byteOffset": 2359260,
      "componentType": 5126,
      "count": 65535,
      "max": [
        6.605978488922119,
        6.7379021644592285,
        55.15694046020508
      ],
      "min": [
        -4.35868501663208,
        -4.019766330718994,
        33.3980827331543
      ],
      "type": "VEC3"
    },
    {
      "bufferView": 1,
      "byteOffset": 3145680,
      "componentType": 5126,
      "count": 65535,
      "max": [
        0.9960784316062927,
        0.9960784316062927,
        0.9960784316062927,
        1.0
      ],
      "min": [
        0.0,
        0.0,
        0.0,
        1.0
      ],
      "type": "VEC4"
    },
    {
      "bufferView": 0,
      "byteOffset": 3145680,
      "componentType": 5126,
      "count": 65535,
      "max": [
        4.852606296539307,
        6.731813907623291,
        54.93168258666992
      ],
      "min": [
        -8.71776294708252,
        -4.019766330718994,
        31.632532119750977
      ],
      "type": "VEC3"
    },
    {
      "bufferView": 1,
      "byteOffset": 4194240,
      "componentType": 5126,
      "count": 65535,
      "max": [
        0.9764705896377563,
        0.8823529481887817,
        0.9372549057006836,
        1.0
      ],
      "min": [
        0.0,
        0.0,
        0.0,
        1.0
      ],
      "type": "VEC4"
    },
    {
      "bufferView": 0,
      "byteOffset": 3932100,
      "componentType": 5126,
      "count": 65535,
      "max": [
        4.834342002868652,
        6.7379021644592285,
        54.79774475097656
      ],
      "min": [
        -8.681234359741211,
        -4.019766330718994,
        31.632532119750977
      ],
      "type": "VEC3"
    },
    {
      "bufferView": 1,
      "byteOffset": 5242800,
      "componentType": 5126,
      "count": 65535,
      "max": [
        0.9921568632125854,
        0.8627451062202454,
        0.8470588326454163,
        1.0
      ],
      "min": [
        0.0,
        0.0,
        0.0,
        1.0
      ],
      "type": "VEC4"
    },
    {
      "bufferView": 0,
      "byteOffset": 4718520,
      "componentType": 5126,
      "count": 65535,
      "max": [
        4.864782810211182,
        6.731813907623291,
        54.98038864135742
      ],
      "min": [
        -8.955199241638184,
        -4.019766330718994,
        25.696638107299805
      ],
      "type": "VEC3"
    },
    {
      "bufferView": 1,
      "byteOffset": 6291360,
      "componentType": 5126,
      "count": 65535,
      "max": [
        0.9960784316062927,
        0.9764705896377563,
        0.9960784316062927,
        1.0
      ],
      "min": [
        0.0,
        0.0,
        0.0,
        1.0
      ],
      "type": "VEC4"
    },
    {
      "bufferView": 0,
      "byteOffset": 5504940,
      "componentType": 5126,
      "count": 65535,
      "max": [
        4.852606296539307,
        6.817047119140625,
        54.925594329833984
      ],
      "min": [
        -9.046520233154297,
        -4.019766330718994,
        25.696638107299805
      ],
      "type": "VEC3"
    },
    {
      "bufferView": 1,
      "byteOffset": 7339920,
      "componentType": 5126,
      "count": 65535,
      "max": [
        0.9960784316062927,
        0.9960784316062927,
        0.9960784316062927,
        1.0
      ],
      "min": [
        0.0,
        0.0,
        0.0,
        1.0
      ],
      "type": "VEC4"
    },
    {
      "bufferView": 0,
      "byteOffset": 6291360,
      "componentType": 5126,
      "count": 65535,
      "max": [
        4.834342002868652,
        6.7257256507873535,
        55.01691436767578
      ],
      "min": [
        -9.137842178344727,
        -4.019766330718994,
        24.21114158630371
      ],
      "type": "VEC3"
    },
    {
      "bufferView": 1,
      "byteOffset": 8388480,
      "componentType": 5126,
      "count": 65535,
      "max": [
        0.9960784316062927,
        0.9960784316062927,
        0.9960784316062927,
        1.0
      ],
      "min": [
        0.0,
        0.0,
        0.0,
        1.0
      ],
      "type": "VEC4"
    },
    {
      "bufferView": 0,
      "byteOffset": 7077780,
      "componentType": 5126,
      "count": 65535,
      "max": [
        4.864782810211182,
        6.731813907623291,
        54.80992126464844
      ],
      "min": [
        -9.125665664672852,
        -4.019766330718994,
        13.818758964538574
      ],
      "type": "VEC3"
    },
    {
      "bufferView": 1,
      "byteOffset": 9437040,
      "componentType": 5126,
      "count": 65535,
      "max": [
        0.9960784316062927,
        0.9960784316062927,
        0.9960784316062927,
        1.0
      ],
      "min": [
        0.0,
        0.0,
        0.0,
        1.0
      ],
      "type": "VEC4"
    },
    {
      "bufferView": 0,
      "byteOffset": 7864200,
      "componentType": 5126,
      "count": 65535,
      "max": [
        5.784085273742676,
        6.743989944458008,
        54.88906478881836
      ],
      "min": [
        -9.277868270874023,
        -11.9464693069458,
        13.088187217712402
      ],
      "type": "VEC3"
    },
    {
      "bufferView": 1,
      "byteOffset": 10485600,
      "componentType": 5126,
      "count": 65535,
      "max": [
        0.9725490212440491,
        0.9254902005195618,
        0.9411764740943909,
        1.0
      ],
      "min": [
        0.0,
        0.0,
        0.0,
        1.0
      ],
      "type": "VEC4"
    },
    {
      "bufferView": 0,
      "byteOffset": 8650620,
      "componentType": 5126,
      "count": 65535,
      "max": [
        4.864782810211182,
        6.7379021644592285,
        54.77947998046875
      ],
      "min": [
        -7.768019676208496,
        -13.681577682495117,
        13.818758964538574
      ],
      "type": "VEC3"
    },
    {
      "bufferView": 1,
      "byteOffset": 11534160,
      "componentType": 5126,
      "count": 65535,
      "max": [
        0.9803921580314636,
        0.8549019694328308,
        0.8039215803146362,
        1.0
      ],
      "min": [
        0.0,
        0.0,
        0.0,
        1.0
      ],
      "type": "VEC4"
    },
    {
      "bufferView": 0,
      "byteOffset": 9437040,
      "componentType": 5126,
      "count": 65535,
      "max": [
        6.380719184875488,
        6.707461357116699,
        54.91950607299805
      ],
      "min": [
        -11.621785163879395,
        -16.646480560302734,
        9.891936302185059
      ],
      "type": "VEC3"
    },
    {
      "bufferView": 1,
      "byteOffset": 12582720,
      "componentType": 5126,
      "count": 65535,
      "max": [
        0.9764705896377563,
        0.9058823585510254,
        0.9254902005195618,
        1.0
      ],
      "min": [
        0.0,
        0.0,
        0.0,
        1.0
      ],
      "type": "VEC4"
    },
    {
      "bufferView": 0,
      "byteOffset": 10223460,
      "componentType": 5126,
      "count": 65535,
      "max": [
        13.534234046936035,
        6.7379021644592285,
        54.791656494140625
      ],
      "min": [
        -7.500143527984619,
        -16.23249053955078,
        8.114212036132813
      ],
      "type": "VEC3"
    },
    {
      "bufferView": 1,
      "byteOffset": 13631280,
      "componentType": 5126,
      "count": 65535,
      "max": [
        0.9960784316062927,
        0.9960784316062927,
        0.9607843160629272,
        1.0
      ],
      "min": [
        0.0,
        0.0,
        0.0,
        1.0
      ],
      "type": "VEC4"
    },
    {
      "bufferView": 0,
      "byteOffset": 11009880,
      "componentType": 5126,
      "count": 65535,
      "max": [
        12.541873931884766,
        7.6815571784973145,
        54.88906478881836
      ],
      "min": [
        -12.632410049438477,
        -13.99815845489502,
        8.16291618347168
      ],
      "type": "VEC3"
    },
    {
      "bufferView": 1,
      "byteOffset": 14679840,
      "componentType": 5126,
      "count": 65535,
      "max": [
        0.9960784316062927,
        0.9960784316062927,
        0.9960784316062927,
        1.0
      ],
      "min": [
        0.0,
        0.0,
        0.0,
        1.0
      ],
      "type": "VEC4"
    },
    {
      "bufferView": 0,
      "byteOffset": 11796300,
      "componentType": 5126,
      "count": 65535,
      "max": [
        13.9664888381958,
        8.600859642028809,
        54.9438591003418
      ],
      "min": [
        -8.991727828979492,
        -4.019766330718994,
        8.108123779296875
      ],
      "type": "VEC3"
    },
    {
      "bufferView": 1,
      "byteOffset": 15728400,
      "componentType": 5126,
      "count": 65535,
      "max": [
        0.9960784316062927,
        0.9960784316062927,
        0.9960784316062927,
        1.0
      ],
      "min": [
        0.0,
        0.0,
        0.0,
        1.0
      ],
      "type": "VEC4"
    },
    {
      "bufferView": 0,
      "byteOffset": 12582720,
      "componentType": 5126,
      "count": 65535,
      "max": [
        11.939151763916016,
        7.27974271774292,
        54.8951530456543
      ],
      "min": [
        -3.2080347537994385,
        -13.638960838317871,
        15.29816722869873
      ],
      "type": "VEC3"
    },
    {
      "bufferView": 1,
      "byteOffset": 16776960,
      "componentType": 5126,
      "count": 65535,
      "max": [
        0.9960784316062927,
        0.9960784316062927,
        0.9960784316062927,
        1.0
      ],
      "min": [
        0.0,
        0.0,
        0.0,
        1.0
      ],
      "type": "VEC4"
    },
    {
      "bufferView": 0,
      "byteOffset": 13369140,
      "componentType": 5126,
      "count": 65535,
      "max": [
        6.898207187652588,
        7.255390167236328,
        54.93777084350586
      ],
      "min": [
        -7.8167243003845215,
        -13.699841499328613,
        22.725645065307617
      ],
      "type": "VEC3"
    },
    {
      "bufferView": 1,
      "byteOffset": 17825520,
      "componentType": 5126,
      "count": 65535,
      "max": [
        0.9960784316062927,
        0.9215686321258545,
        0.9725490212440491,
        1.0
      ],
      "min": [
        0.0,
        0.0,
        0.0,
        1.0
      ],
      "type": "VEC4"
    },
    {
      "bufferView": 0,
      "byteOffset": 14155560,
      "componentType": 5126,
      "count": 65535,
      "max": [
        9.041217803955078,
        6.7379021644592285,
        54.90732955932617
      ],
      "min": [
        -5.271899700164795,
        -14.02859878540039,
        31.632532119750977
      ],
      "type": "VEC3"
    },
    {
      "bufferView": 1,
      "byteOffset": 18874080,
      "componentType": 5126,
      "count": 65535,
      "max": [
        0.9960784316062927,
        0.9960784316062927,
        0.9960784316062927,
        1.0
      ],
      "min": [
        0.0,
        0.0,
        0.0,
        1.0
      ],
      "type": "VEC4"
    },
    {
      "bufferView": 0,
      "byteOffset": 14941980,
      "componentType": 5126,
      "count": 65535,
      "max": [
        11.92088794708252,
        6.7379021644592285,
        54.86471176147461
      ],
      "min": [
        0.6700835227966309,
        -9.773018836975098,
        31.632532119750977
      ],
      "type": "VEC3"
    },
    {
      "bufferView": 1,
      "byteOffset": 19922640,
      "componentType": 5126,
      "count": 65535,
      "max": [
        0.9960784316062927,
        0.9960784316062927,
        0.9960784316062927,
        1.0
      ],
      "min": [
        0.0,
        0.0,
        0.0,
        1.0
      ],
      "type": "VEC4"
    },
    {
      "bufferView": 0,
      "byteOffset": 15728400,
      "componentType": 5126,
      "count": 65535,
      "max": [
        5.3700947761535645,
        6.7257256507873535,
        54.88297653198242
      ],
      "min": [
        -8.985639572143555,
        -9.736490249633789,
        31.632532119750977
      ],
      "type": "VEC3"
    },
    {
      "bufferView": 1,
      "byteOffset": 20971200,
      "componentType": 5126,
      "count": 65535,
      "max": [
        0.9960784316062927,
        0.9960784316062927,
        0.9960784316062927,
        1.0
      ],
      "min": [
        0.0,
        0.0,
        0.0,
        1.0
      ],
      "type": "VEC4"
    },
    {
      "bufferView": 0,
      "byteOffset": 16514820,
      "componentType": 5126,
      "count": 65535,
      "max": [
        4.846518516540527,
        6.7379021644592285,
        54.96821212768555
      ],
      "min": [
        -9.016079902648926,
        -4.019766330718994,
        31.632532119750977
      ],
      "type": "VEC3"
    },
    {
      "bufferView": 1,
      "byteOffset": 22019760,
      "componentType": 5126,
      "count": 65535,
      "max": [
        0.9960784316062927,
        0.9137254953384399,
        0.929411768913269,
        1.0
      ],
      "min": [
        0.0,
        0.0,
        0.0,
        1.0
      ],
      "type": "VEC4"
    },
    {
      "bufferView": 0,
      "byteOffset": 17301240,
      "componentType": 5126,
      "count": 57962,
      "max": [
        4.852606296539307,
        6.7379021644592285,
        54.77339172363281
      ],
      "min": [
        -8.967374801635742,
        -4.019766330718994,
        31.632532119750977
      ],
      "type": "VEC3"
    },
    {
      "bufferView": 1,
      "byteOffset": 23068320,
      "componentType": 5126,
      "count": 57962,
      "max": [
        0.9921568632125854,
        0.8705882430076599,
        0.9176470637321472,
        1.0
      ],
      "min": [
        0.0,
        0.0,
        0.0,
        1.0
      ],
      "type": "VEC4"
    }
  ],
  "asset": {
    "extras": {
      "author": "Felipe Baeza (https://sketchfab.com/baezafelipe)",
      "license": "CC-BY-4.0 (http://creativecommons.org/licenses/by/4.0/)",
      "source": "https://sketchfab.com/3d-models/la-ilusion-de-la-materia-chile-2019-4-72f65f38b5ea4d1483a7de9dbb3db62f",
      "title": "La ilusión de la Materia - Chile - 2019 - 4"
    },
    "generator": "Sketchfab-12.64.0",
    "version": "2.0"
  },
  "bufferViews": [
    {
      "buffer": 0,
      "byteLength": 17996784,
      "byteStride": 12,
      "name": "floatBufferViews",
      "target": 34962
    },
    {
      "buffer": 0,
      "byteLength": 23995712,
      "byteOffset": 17996784,
      "byteStride": 16,
      "name": "floatBufferViews",
      "target": 34962
    }
  ],
  "buffers": [
    {
      "byteLength": 41992496,
      "uri": "scene.bin"
    }
  ],
  "extensionsUsed": [
    "KHR_materials_unlit"
  ],
  "materials": [
    {
      "doubleSided": true,
      "extensions": {
        "KHR_materials_unlit": {}
      },
      "name": "Scene_-_Root",
      "pbrMetallicRoughness": {
        "metallicFactor": 0.0
      }
    }
  ],
  "meshes": [
    {
      "name": "Object_0",
      "primitives": [
        {
          "attributes": {
            "COLOR_0": 1,
            "POSITION": 0
          },
          "material": 0,
          "mode": 0
        }
      ]
    },
    {
      "name": "Object_1",
      "primitives": [
        {
          "attributes": {
            "COLOR_0": 3,
            "POSITION": 2
          },
          "material": 0,
          "mode": 0
        }
      ]
    },
    {
      "name": "Object_2",
      "primitives": [
        {
          "attributes": {
            "COLOR_0": 5,
            "POSITION": 4
          },
          "material": 0,
          "mode": 0
        }
      ]
    },
    {
      "name": "Object_3",
      "primitives": [
        {
          "attributes": {
            "COLOR_0": 7,
            "POSITION": 6
          },
          "material": 0,
          "mode": 0
        }
      ]
    },
    {
      "name": "Object_4",
      "primitives": [
        {
          "attributes": {
            "COLOR_0": 9,
            "POSITION": 8
          },
          "material": 0,
          "mode": 0
        }
      ]
    },
    {
      "name": "Object_5",
      "primitives": [
        {
          "attributes": {
            "COLOR_0": 11,
            "POSITION": 10
          },
          "material": 0,
          "mode": 0
        }
      ]
    },
    {
      "name": "Object_6",
      "primitives": [
        {
          "attributes": {
            "COLOR_0": 13,
            "POSITION": 12
          },
          "material": 0,
          "mode": 0
        }
      ]
    },
    {
      "name": "Object_7",
      "primitives": [
        {
          "attributes": {
            "COLOR_0": 15,
            "POSITION": 14
          },
          "material": 0,
          "mode": 0
        }
      ]
    },
    {
      "name": "Object_8",
      "primitives": [
        {
          "attributes": {
            "COLOR_0": 17,
            "POSITION": 16
          },
          "material": 0,
          "mode": 0
        }
      ]
    },
    {
      "name": "Object_9",
      "primitives": [
        {
          "attributes": {
            "COLOR_0": 19,
            "POSITION": 18
          },
          "material": 0,
          "mode": 0
        }
      ]
    },
    {
      "name": "Object_10",
      "primitives": [
        {
          "attributes": {
            "COLOR_0": 21,
            "POSITION": 20
          },
          "material": 0,
          "mode": 0
        }
      ]
    },
    {
      "name": "Object_11",
      "primitives": [
        {
          "attributes": {
            "COLOR_0": 23,
            "POSITION": 22
          },
          "material": 0,
          "mode": 0
        }
      ]
    },
    {
      "name": "Object_12",
      "primitives": [
        {
          "attributes": {
            "COLOR_0": 25,
            "POSITION": 24
          },
          "material": 0,
          "mode": 0
        }
      ]
    },
    {
      "name": "Object_13",
      "primitives": [
        {
          "attributes": {
            "COLOR_0": 27,
            "POSITION": 26
          },
          "material": 0,
          "mode": 0
        }
      ]
    },
    {
      "name": "Object_14",
      "primitives": [
        {
          "attributes": {
            "COLOR_0": 29,
            "POSITION": 28
          },
          "material": 0,
          "mode": 0
        }
      ]
    },
    {
      "name": "Object_15",
      "primitives": [
        {
          "attributes": {
            "COLOR_0": 31,
            "POSITION": 30
          },
          "material": 0,
          "mode": 0
        }
      ]
    },
    {
      "name": "Object_16",
      "primitives": [
        {
          "attributes": {
            "COLOR_0": 33,
            "POSITION": 32
          },
          "material": 0,
          "mode": 0
        }
      ]
    },
    {
      "name": "Object_17",
      "primitives": [
        {
          "attributes": {
            "COLOR_0": 35,
            "POSITION": 34
          },
          "material": 0,
          "mode": 0
        }
      ]
    },
    {
      "name": "Object_18",
      "primitives": [
        {
          "attributes": {
            "COLOR_0": 37,
            "POSITION": 36
          },
          "material": 0,
          "mode": 0
        }
      ]
    },
    {
      "name": "Object_19",
      "primitives": [
        {
          "attributes": {
            "COLOR_0": 39,
            "POSITION": 38
          },
          "material": 0,
          "mode": 0
        }
      ]
    },
    {
      "name": "Object_20",
      "primitives": [
        {
          "attributes": {
            "COLOR_0": 41,
            "POSITION": 40
          },
          "material": 0,
          "mode": 0
        }
      ]
    },
    {
      "name": "Object_21",
      "primitives": [
        {
          "attributes": {
            "COLOR_0": 43,
            "POSITION": 42
          },
          "material": 0,
          "mode": 0
        }
      ]
    },
    {
      "name": "Object_22",
      "primitives": [
        {
          "attributes": {
            "COLOR_0": 45,
            "POSITION": 44
          },
          "material": 0,
          "mode": 0
        }
      ]
    }
  ],
  "nodes": [
    {
      "children": [
        1
      ],
      "matrix": [
        0.6684876084327698,
        1.6513974038840533e-16,
        -0.7437232732772827,
        0.0,
        -0.7437232732772827,
        1.484340669117334e-16,
        -0.6684876084327698,
        0.0,
        0.0,
        1.0,
        2.220446049250313e-16,
        0.0,
        -2.7707314491271973,
        -4.0627604442807495e-16,
        1.8297046422958374,
        1.0
      ],
      "name": "Sketchfab_model"
    },
    {
      "children": [
        2,
        3,
        4,
        5,
        6,
        7,
        8,
        9,
        10,
        11,
        12,
        13,
        14,
        15,
        16,
        17,
        18,
        19,
        20,
        21,
        22,
        23,
        24
      ],
      "name": "Geode"
    },
    {
      "mesh": 0,
      "name": "Object_2"
    },
    {
      "mesh": 1,
      "name": "Object_3"
    },
    {
      "mesh": 2,
      "name": "Object_4"
    },
    {
      "mesh": 3,
      "name": "Object_5"
    },
    {
      "mesh": 4,
      "name": "Object_6"
    },
    {
      "mesh": 5,
      "name": "Object_7"
    },
    {
      "mesh": 6,
      "name": "Object_8"
    },
    {
      "mesh": 7,
      "name": "Object_9"
    },
    {
      "mesh": 8,
      "name": "Object_10"
    },
    {
      "mesh": 9,
      "name": "Object_11"
    },
    {
      "mesh": 10,
      "name": "Object_12"
    },
    {
      "mesh": 11,
      "name": "Object_13"
    },
    {
      "mesh": 12,
      "name": "Object_14"
    },
    {
      "mesh": 13,
      "name": "Object_15"
    },
    {
      "mesh": 14,
      "name": "Object_16"
    },
    {
      "mesh": 15,
      "name": "Object_17"
    },
    {
      "mesh": 16,
      "name": "Object_18"
    },
    {
      "mesh": 17,
      "name": "Object_19"
    },
    {
      "mesh": 18,
      "name": "Object_20"
    },
    {
      "mesh": 19,
      "name": "Object_21"
    },
    {
      "mesh": 20,
      "name": "Object_22"
    },
    {
      "mesh": 21,
      "name": "Object_23"
    },
    {
      "mesh": 22,
      "name": "Object_24"
    }
  ],
  "scene": 0,
  "scenes": [
    {
      "name": "Sketchfab_Scene",
      "nodes": [
        0
      ]
    }
  ]
}
